# Apple ModelIO OBJ File: arrow
mtllib arrow.mtl
g 
v 0.5 0.25 0.05
v 0.5 -0.25 0.05
v 0.5 -0.25 -0.05
v 0.5 0.25 -0.05
v -0.5 0.25 -0.05
v -0.5 -0.25 -0.05
v -0.5 -0.25 0.05
v -0.5 0.25 0.05
vn 1 0 0
vn -1 0 0
vn 0 1 0
vn 0 -1 0
vn 0 0 1
vn 0 0 -1
vt 0 1
vt 0 0
vt 1 0
vt 1 1
usemtl material_1
f 1/1/1 2/2/1 3/3/1 4/4/1 
f 5/1/2 6/2/2 7/3/2 8/4/2 
f 5/1/3 8/2/3 1/3/3 4/4/3 
f 7/1/4 6/2/4 3/3/4 2/4/4 
f 8/1/5 7/2/5 2/3/5 1/4/5 
f 4/1/6 3/2/6 6/3/6 5/4/6 
s off
g _1
v 0.4939 0.5 -0.05
v 0.4939 -0.5 -0.05
v 0.4939 -0.5 0.05
v 0.4939 0.5 0.05
v 0.9939 0.000517 0.05
v 0.9939 0.000517 -0.05
vn -1 0 0
vn 0.7067 0.7075 0
vn 0.7075 -0.7067 0
vn 0 0 1
vn 0 0 -1
vt 0 1
vt 0 0
vt 1 0
vt 1 1
usemtl material_2
f 9/5/7 10/6/7 11/7/7 12/8/7 
f 9/5/8 12/6/8 13/7/8 14/8/8 
f 11/5/9 10/6/9 14/7/9 13/8/9 
f 12/5/10 11/6/10 13/7/10 
f 14/5/11 10/7/11 9/8/11 
s off
